<svg width="6" height="4" viewBox="0 0 6 4" fill="none" xmlns="http://www.w3.org/2000/svg">
<path d="M3.35503 3.41497L5.47503 1.29497C5.52189 1.24849 5.55909 1.19319 5.58447 1.13226C5.60986 1.07133 5.62292 1.00598 5.62292 0.939971C5.62292 0.873966 5.60986 0.808613 5.58447 0.747683C5.55909 0.686753 5.52189 0.631453 5.47503 0.584971C5.38134 0.491846 5.25462 0.439575 5.12253 0.439575C4.99043 0.439575 4.86371 0.491846 4.77003 0.584971L3.00003 2.35497L1.23003 0.584971C1.13634 0.491846 1.00962 0.439575 0.877525 0.439575C0.745432 0.439575 0.618707 0.491846 0.525025 0.584971C0.478685 0.631691 0.442022 0.687099 0.41714 0.748018C0.392258 0.808937 0.379645 0.874168 0.380026 0.939971C0.379645 1.00577 0.392258 1.07101 0.41714 1.13192C0.442022 1.19284 0.478685 1.24825 0.525025 1.29497L2.64503 3.41497C2.69151 3.46184 2.74681 3.49903 2.80774 3.52442C2.86867 3.5498 2.93402 3.56287 3.00003 3.56287C3.06603 3.56287 3.13138 3.5498 3.19231 3.52442C3.25324 3.49903 3.30854 3.46184 3.35503 3.41497Z" fill="white"/>
</svg>
