<svg width="10" height="10" viewBox="0 0 10 10" fill="none" xmlns="http://www.w3.org/2000/svg">
<path d="M9.04585 8.45413L7.50002 6.92079C8.10006 6.17263 8.39065 5.223 8.31203 4.26717C8.2334 3.31134 7.79155 2.42195 7.07732 1.7819C6.36309 1.14184 5.43077 0.799756 4.47207 0.82599C3.51337 0.852223 2.60116 1.24478 1.923 1.92294C1.24484 2.60109 0.852284 3.51331 0.826051 4.47201C0.799817 5.43071 1.1419 6.36303 1.78196 7.07726C2.42201 7.79149 3.3114 8.23334 4.26723 8.31196C5.22306 8.39059 6.17269 8.1 6.92085 7.49996L8.45419 9.03329C8.49292 9.07235 8.53901 9.10334 8.58978 9.1245C8.64056 9.14565 8.69502 9.15654 8.75002 9.15654C8.80503 9.15654 8.85949 9.14565 8.91026 9.1245C8.96104 9.10334 9.00712 9.07235 9.04585 9.03329C9.12095 8.9556 9.16293 8.85177 9.16293 8.74371C9.16293 8.63565 9.12095 8.53182 9.04585 8.45413ZM4.58335 7.49996C4.00649 7.49996 3.44258 7.3289 2.96294 7.00841C2.4833 6.68793 2.10946 6.23241 1.88871 5.69945C1.66795 5.1665 1.61019 4.58006 1.72273 4.01428C1.83527 3.4485 2.11306 2.9288 2.52096 2.5209C2.92886 2.113 3.44856 1.83521 4.01434 1.72267C4.58012 1.61013 5.16656 1.66789 5.69951 1.88864C6.23247 2.1094 6.68799 2.48324 7.00847 2.96288C7.32896 3.44252 7.50002 4.00643 7.50002 4.58329C7.50002 5.35684 7.19273 6.09871 6.64575 6.64569C6.09877 7.19267 5.3569 7.49996 4.58335 7.49996Z" fill="#EEEEEE"/>
</svg>
