<svg width="21" height="21" viewBox="0 0 21 21" fill="none" xmlns="http://www.w3.org/2000/svg">
<path d="M17.2084 0.916626H3.79169C3.02919 0.916626 2.29792 1.21953 1.75876 1.75869C1.21959 2.29786 0.916687 3.02913 0.916687 3.79163V4.91288C0.91655 5.30861 0.998113 5.70012 1.15627 6.06288V6.12038C1.29166 6.42797 1.48344 6.70751 1.72169 6.94454L7.62502 12.8095V19.125C7.62469 19.2878 7.66588 19.4481 7.74469 19.5906C7.8235 19.7331 7.93733 19.8532 8.07544 19.9395C8.22795 20.0341 8.40393 20.0839 8.58335 20.0833C8.73337 20.0824 8.88109 20.0463 9.0146 19.9779L12.8479 18.0612C13.006 17.9816 13.1389 17.8597 13.2319 17.7092C13.325 17.5586 13.3745 17.3853 13.375 17.2083V12.8095L19.24 6.94454C19.4783 6.70751 19.67 6.42797 19.8054 6.12038V6.06288C19.9768 5.70296 20.0714 5.31133 20.0834 4.91288V3.79163C20.0834 3.02913 19.7805 2.29786 19.2413 1.75869C18.7021 1.21953 17.9709 0.916626 17.2084 0.916626ZM11.7363 11.7362C11.6475 11.8258 11.5772 11.932 11.5295 12.0487C11.4818 12.1655 11.4576 12.2905 11.4584 12.4166V16.6141L9.54169 17.5725V12.4166C9.54242 12.2905 9.51824 12.1655 9.47055 12.0487C9.42286 11.932 9.35259 11.8258 9.26377 11.7362L4.1846 6.66663H16.8154L11.7363 11.7362ZM18.1667 4.74996H2.83335V3.79163C2.83335 3.53746 2.93432 3.2937 3.11404 3.11398C3.29377 2.93426 3.53752 2.83329 3.79169 2.83329H17.2084C17.4625 2.83329 17.7063 2.93426 17.886 3.11398C18.0657 3.2937 18.1667 3.53746 18.1667 3.79163V4.74996Z" fill="white"/>
</svg>
